<svg id="Layer_1" data-name="Layer 1" xmlns="http://www.w3.org/2000/svg" viewBox="0 0 40.04 40.04"><defs><style>.cls-1{fill:#51799e;}</style></defs><path class="cls-1" d="M20,36.27a25.2,25.2,0,0,1-8.68-1.38c-2.64-1-4.09-2.47-4.09-4.12h0l0-21.5c0-1.65,1.45-3.11,4.09-4.11A25,25,0,0,1,20,3.77a25,25,0,0,1,8.68,1.39c2.64,1,4.09,2.46,4.09,4.11h0v7.17h0a1.09,1.09,0,0,1,0,.18v7h0c0,.09,0,.18,0,.26v6.91h0c0,1.65-1.45,3.11-4.09,4.12A25.2,25.2,0,0,1,20,36.27ZM9.24,30.77h0c0,.57.74,1.46,2.81,2.25a23,23,0,0,0,8,1.25A23,23,0,0,0,28,33c2.07-.79,2.81-1.68,2.81-2.25h0V26.68a10.79,10.79,0,0,1-2.07,1A25.25,25.25,0,0,1,20,29.1a25.25,25.25,0,0,1-8.68-1.38,10.27,10.27,0,0,1-2.1-1.06Zm0-7.17h0c0,.57.74,1.46,2.81,2.25a23,23,0,0,0,8,1.25,23,23,0,0,0,8-1.25c1.92-.73,2.69-1.55,2.8-2.12V19.51a10.89,10.89,0,0,1-2.08,1A25,25,0,0,1,20,21.94a25,25,0,0,1-8.68-1.39,10.54,10.54,0,0,1-2.1-1.05Zm0-7.16h0c0,.57.74,1.45,2.81,2.25a23.29,23.29,0,0,0,8,1.25,23.29,23.29,0,0,0,8-1.25c2-.75,2.73-1.59,2.8-2.16V12.34a12,12,0,0,1-3.37,1.47,22,22,0,0,1-3.44.71,31.64,31.64,0,0,1-7.9,0,22.34,22.34,0,0,1-3.45-.71,12,12,0,0,1-3.37-1.47ZM20,5.77a23,23,0,0,0-8,1.25C10,7.81,9.26,8.7,9.26,9.27s.47.94.87,1.23a9.32,9.32,0,0,0,3.06,1.39,20.81,20.81,0,0,0,3.15.65,29.4,29.4,0,0,0,7.38,0,20.81,20.81,0,0,0,3.15-.65,9.42,9.42,0,0,0,3.06-1.39c.4-.29.87-.75.87-1.23h0C30.8,8.7,30.06,7.81,28,7A23,23,0,0,0,20,5.77Z"/></svg>